HIERARCHY
ROOT Hips
{
	OFFSET 0.000000 0.000000 0.000000
	CHANNELS 6 Xposition Yposition Zposition Zrotation Yrotation Xrotation 
	JOINT LHipJoint
	{
		OFFSET 0.000000 0.000000 0.000000
		CHANNELS 3 Zrotation Yrotation Xrotation
		JOINT LeftUpLeg
		{
			OFFSET 1.363060 -1.794630 0.839290
			CHANNELS 3 Zrotation Yrotation Xrotation
			JOINT LeftLeg
			{
				OFFSET 2.448110 -6.726130 0.000000
				CHANNELS 3 Zrotation Yrotation Xrotation
				JOINT LeftFoot
				{
					OFFSET 2.562200 -7.039590 0.000000
					CHANNELS 3 Zrotation Yrotation Xrotation
					JOINT LeftToeBase
					{
						OFFSET 0.157640 -0.433110 2.322550
						CHANNELS 3 Zrotation Yrotation Xrotation
						End Site
						{
							OFFSET 0.000000 0.000000 0.000000
						}
					}
				}
			}
		}
	}
	JOINT RHipJoint
	{
		OFFSET 0.000000 0.000000 0.000000
		CHANNELS 3 Zrotation Yrotation Xrotation
		JOINT RightUpLeg
		{
			OFFSET -1.305520 -1.794630 0.839290
			CHANNELS 3 Zrotation Yrotation Xrotation
			JOINT RightLeg
			{
				OFFSET -2.542530 -6.985550 0.000000
				CHANNELS 3 Zrotation Yrotation Xrotation
				JOINT RightFoot
				{
					OFFSET -2.568260 -7.056230 0.000000
					CHANNELS 3 Zrotation Yrotation Xrotation
					JOINT RightToeBase
					{
						OFFSET -0.164730 -0.452590 2.363150
						CHANNELS 3 Zrotation Yrotation Xrotation
						End Site
						{
							OFFSET 0.000000 0.000000 0.000000
						}
					}
				}
			}
		}
	}
	JOINT LowerBack
	{
		OFFSET 0.000000 0.000000 0.000000
		CHANNELS 3 Zrotation Yrotation Xrotation
		JOINT Spine
		{
			OFFSET 0.028270 2.035590 -0.193380
			CHANNELS 3 Zrotation Yrotation Xrotation
			JOINT Spine1
			{
				OFFSET 0.056720 2.048850 -0.042750
				CHANNELS 3 Zrotation Yrotation Xrotation
				JOINT Neck
				{
					OFFSET 0.000000 0.000000 0.000000
					CHANNELS 3 Zrotation Yrotation Xrotation
					JOINT Neck1
					{
						OFFSET -0.054170 1.746240 0.172020
						CHANNELS 3 Zrotation Yrotation Xrotation
						JOINT Head
						{
							OFFSET 0.104070 1.761360 -0.123970
							CHANNELS 3 Zrotation Yrotation Xrotation
							End Site
							{
								OFFSET 0.000000 0.000000 0.000000
							}
						}
					}
				}
				JOINT LeftShoulder
				{
					OFFSET 0.000000 0.000000 0.000000
					CHANNELS 3 Zrotation Yrotation Xrotation
					JOINT LeftArm
					{
						OFFSET 3.362410 1.200890 -0.311210
						CHANNELS 3 Zrotation Yrotation Xrotation
						JOINT LeftForeArm
						{
							OFFSET 4.983000 -0.000000 -0.000000
							CHANNELS 3 Zrotation Yrotation Xrotation
							JOINT LeftHand
							{
								OFFSET 3.483560 -0.000000 -0.000000
								CHANNELS 3 Zrotation Yrotation Xrotation
								JOINT LeftFingerBase
								{
									OFFSET 0.000000 0.000000 0.000000
									CHANNELS 3 Zrotation Yrotation Xrotation
									JOINT LeftHandIndex1
									{
										OFFSET 0.715260 -0.000000 -0.000000
										CHANNELS 3 Zrotation Yrotation Xrotation
										End Site
										{
											OFFSET 0.000000 0.000000 0.000000
										}
									}
								}
								JOINT LThumb
								{
									OFFSET 0.000000 0.000000 0.000000
									CHANNELS 3 Zrotation Yrotation Xrotation
									End Site
									{
										OFFSET 0.000000 0.000000 0.000000
									}
								}
							}
						}
					}
				}
				JOINT RightShoulder
				{
					OFFSET 0.000000 0.000000 0.000000
					CHANNELS 3 Zrotation Yrotation Xrotation
					JOINT RightArm
					{
						OFFSET -3.136600 1.374050 -0.404650
						CHANNELS 3 Zrotation Yrotation Xrotation
						JOINT RightForeArm
						{
							OFFSET -5.241900 -0.000000 -0.000000
							CHANNELS 3 Zrotation Yrotation Xrotation
							JOINT RightHand
							{
								OFFSET -3.444170 -0.000000 -0.000000
								CHANNELS 3 Zrotation Yrotation Xrotation
								JOINT RightFingerBase
								{
									OFFSET 0.000000 0.000000 0.000000
									CHANNELS 3 Zrotation Yrotation Xrotation
									JOINT RightHandIndex1
									{
										OFFSET -0.622530 -0.000000 -0.000000
										CHANNELS 3 Zrotation Yrotation Xrotation
										End Site
										{
											OFFSET 0.000000 0.000000 0.000000
										}
									}
								}
								JOINT RThumb
								{
									OFFSET 0.000000 0.000000 0.000000
									CHANNELS 3 Zrotation Yrotation Xrotation
									End Site
									{
										OFFSET 0.000000 0.000000 0.000000
									}
								}
							}
						}
					}
				}
			}
		}
	}
}
MOTION
Frames: 4
Frame Time: 0.008333
0.143419 16.964106 -7.816955 1.104636 -1.791243 10.178037 10.045662 1.220558 -2.452117 -29.775746 -16.608032 -7.350706 -0.877458 9.153558 23.359340 -0.678307 12.229478 -19.434055 0.003700 0.394600 1.084200 -12.512349 -1.835082 -2.749073 28.534605 14.717769 -15.464210 -0.499619 -12.481130 32.627431 0.433937 -10.832133 -20.345863 -0.014300 -0.770900 2.118700 0.987121 -0.850359 -2.979735 1.022448 -1.226380 -5.405946 -4.318363 -0.701097 -2.945330 6.221525 4.679070 -13.923774 5.029717 5.201602 18.518475 -3.550700 4.393800 17.334700 14.299710 -10.052969 2.873751 -98.687560 13.878658 23.938830 27.412187 -36.913936 -6.032730 -1.698828 4.406915 13.639946 -4.607804 20.867123 -0.541900 -7.125000 0.000000 0.000000 -27.334000 45.104800 -0.076600 -12.207000 12.396700 2.704543 95.444446 -6.568566 24.753059 -20.425185 30.888124 -3.326751 -0.474615 -2.697990 14.705422 -7.477737 -8.458160 0.771800 7.125000 0.000000 0.000000 15.720400 -35.353200 3.845800 
0.142439 16.964977 -7.813035 1.122607 -1.797926 10.166308 10.045307 1.228410 -2.452087 -29.800712 -16.553837 -7.318433 -0.882714 9.136464 23.319695 -0.681039 12.222465 -19.391004 0.003200 0.366100 1.005900 -12.503033 -1.840466 -2.756659 28.512586 14.605281 -15.484438 -0.503418 -12.478805 32.635354 0.423667 -10.755972 -20.308732 -0.013300 -0.744100 2.044800 0.979743 -0.829661 -2.956463 1.012280 -1.191306 -5.401105 -4.347629 -0.686850 -2.923373 6.221262 4.634508 -13.969060 5.027272 5.135471 18.538223 -3.550000 4.368300 17.372100 14.298503 -10.044714 2.864426 -98.675786 13.855054 24.027732 27.341708 -36.839241 -5.994010 -1.737391 4.392237 13.780472 -4.906730 20.771987 -0.615100 -7.125000 0.000000 0.000000 -27.525300 45.020100 -0.014800 -12.215854 12.391764 2.698175 95.474578 -6.480458 24.909847 -20.501516 30.993482 -3.350310 -0.444409 -2.736948 14.593101 -7.341815 -8.708421 0.790700 7.125000 0.000000 0.000000 15.848100 -35.560800 3.795900 
0.141677 16.964650 -7.806610 1.117809 -1.772144 10.167677 10.046138 1.230884 -2.452556 -29.800966 -16.547160 -7.284158 -0.884790 9.126578 23.301183 -0.673797 12.191035 -19.407089 0.003500 0.380600 1.045800 -12.501829 -1.842414 -2.757849 28.529249 14.592274 -15.465321 -0.506166 -12.478804 32.644246 0.429183 -10.796069 -20.329534 -0.013200 -0.742400 2.040400 1.002915 -0.826805 -2.986578 1.008325 -1.186704 -5.399553 -4.354165 -0.687171 -2.916274 6.180105 4.599978 -13.919263 5.042823 5.093422 18.553464 -3.524000 4.346700 17.350000 14.294412 -10.041663 2.862121 -98.743436 13.878004 23.967073 27.290648 -36.789600 -5.960535 -1.755198 4.368898 14.035971 -5.120390 20.577338 -0.663800 -7.125000 0.000000 0.000000 -27.614900 44.862200 0.102000 -12.213308 12.384839 2.702360 95.472120 -6.487147 25.146345 -20.617264 31.115129 -3.379751 -0.452347 -2.731427 14.377864 -7.446599 -8.637748 0.790500 7.125000 0.000000 0.000000 15.764700 -35.498900 3.799300 
0.140152 16.963997 -7.799967 1.126389 -1.778772 10.152682 10.047401 1.234520 -2.453845 -29.823281 -16.534221 -7.225568 -0.886578 9.114255 23.280942 -0.672494 12.194064 -19.423429 0.003500 0.381800 1.048900 -12.502986 -1.842840 -2.757242 28.540094 14.623491 -15.414261 -0.509168 -12.477004 32.652892 0.431133 -10.828621 -20.366975 -0.013300 -0.743500 2.043400 0.997670 -0.823634 -3.004751 1.006384 -1.181561 -5.397791 -4.346921 -0.685396 -2.902327 6.160052 4.565120 -13.898879 5.042317 5.047081 18.585597 -3.520700 4.328600 17.369000 14.289263 -10.034369 2.863319 -98.816781 13.926889 23.898896 27.291382 -36.795455 -5.953003 -1.772287 4.354034 14.110271 -5.260214 20.470644 -0.696100 -7.125000 0.000000 0.000000 -27.681900 44.774000 0.167800 -12.208616 12.376879 2.701006 95.476835 -6.457849 25.329227 -20.723339 31.225196 -3.406980 -0.452832 -2.730750 14.249719 -7.491145 -8.615081 0.791300 7.125000 0.000000 0.000000 15.729400 -35.478700 3.798200 
